<svg xmlns="http://www.w3.org/2000/svg" xmlns:xlink="http://www.w3.org/1999/xlink" width="500" zoomAndPan="magnify" viewBox="0 0 375 374.999991" height="500" preserveAspectRatio="xMidYMid meet" version="1.0"><defs><g/></defs><rect x="-37.5" width="450" fill="#ffffff" y="-37.499999" height="449.999989" fill-opacity="1"/><rect x="-37.5" width="450" fill="#ffffff" y="-37.499999" height="449.999989" fill-opacity="1"/><g fill="#000000" fill-opacity="1"><g transform="translate(32.486108, 194.554646)"><g><path d="M 4.8125 -24.78125 C 5.695312 -25.851562 6.796875 -26.613281 8.109375 -27.0625 C 9.421875 -27.507812 10.75 -27.691406 12.09375 -27.609375 C 13.5625 -27.535156 14.988281 -27.21875 16.375 -26.65625 C 17.769531 -26.09375 19.160156 -25.53125 20.546875 -24.96875 C 21.941406 -24.414062 23.367188 -24.0625 24.828125 -23.90625 C 25.910156 -23.832031 26.867188 -24.035156 27.703125 -24.515625 C 28.535156 -24.992188 28.953125 -25.816406 28.953125 -26.984375 L 28.953125 -43.421875 L 33.75 -43.421875 L 33.75 0 L 28.953125 0 L 28.953125 -24.203125 C 28.441406 -22.773438 27.585938 -21.722656 26.390625 -21.046875 C 25.203125 -20.367188 23.910156 -20.007812 22.515625 -19.96875 C 21.085938 -19.9375 19.753906 -20.171875 18.515625 -20.671875 C 17.285156 -21.171875 16.109375 -21.757812 14.984375 -22.4375 C 13.867188 -23.113281 12.757812 -23.710938 11.65625 -24.234375 C 10.5625 -24.753906 9.414062 -25.015625 8.21875 -25.015625 C 7.488281 -25.015625 6.738281 -24.835938 5.96875 -24.484375 C 5.195312 -24.140625 4.8125 -23.523438 4.8125 -22.640625 L 4.8125 0 L 0 0 L 0 -43.421875 L 4.8125 -43.421875 Z M 4.8125 -24.78125 "/></g></g></g><g fill="#000000" fill-opacity="1"><g transform="translate(68.898928, 194.554646)"><g><path d="M 19.21875 -43.421875 L 38.671875 0 L 33.40625 0 L 26.21875 -15.921875 C 26.21875 -13.910156 25.898438 -11.945312 25.265625 -10.03125 C 24.628906 -8.125 23.691406 -6.414062 22.453125 -4.90625 C 21.222656 -3.40625 19.703125 -2.210938 17.890625 -1.328125 C 16.078125 -0.441406 13.992188 0 11.640625 0 C 9.085938 0 6.90625 -0.546875 5.09375 -1.640625 C 3.28125 -2.742188 1.925781 -4.25 1.03125 -6.15625 C 0.144531 -8.070312 -0.160156 -10.242188 0.109375 -12.671875 C 0.304688 -14.453125 0.757812 -16.179688 1.46875 -17.859375 C 2.1875 -19.535156 3.023438 -21.164062 3.984375 -22.75 C 4.953125 -24.332031 5.921875 -25.835938 6.890625 -27.265625 C 8.085938 -29.035156 9.15625 -30.734375 10.09375 -32.359375 C 11.039062 -33.984375 11.84375 -35.691406 12.5 -37.484375 C 13.15625 -39.273438 13.617188 -41.253906 13.890625 -43.421875 Z M 24.890625 -18.875 L 14.59375 -41.859375 C 14.164062 -39.460938 13.476562 -37.191406 12.53125 -35.046875 C 11.582031 -32.910156 10.492188 -30.757812 9.265625 -28.59375 C 8.410156 -27.050781 7.519531 -25.398438 6.59375 -23.640625 C 5.664062 -21.890625 4.910156 -20.097656 4.328125 -18.265625 C 3.753906 -16.429688 3.566406 -14.585938 3.765625 -12.734375 C 3.953125 -10.847656 4.554688 -9.179688 5.578125 -7.734375 C 6.609375 -6.285156 7.972656 -5.234375 9.671875 -4.578125 C 11.367188 -3.921875 13.335938 -3.785156 15.578125 -4.171875 C 17.003906 -4.398438 18.398438 -5.035156 19.765625 -6.078125 C 21.140625 -7.117188 22.316406 -8.375 23.296875 -9.84375 C 24.285156 -11.3125 24.953125 -12.832031 25.296875 -14.40625 C 25.640625 -15.988281 25.503906 -17.476562 24.890625 -18.875 Z M 24.890625 -18.875 "/></g></g></g><g fill="#000000" fill-opacity="1"><g transform="translate(108.264175, 194.554646)"><g><path d="M 28.953125 -43.421875 L 33.75 -43.421875 L 33.75 0 L 28.953125 0 L 28.953125 -7.875 C 27.441406 -6.25 25.679688 -4.847656 23.671875 -3.671875 C 21.671875 -2.492188 19.628906 -1.585938 17.546875 -0.953125 C 15.460938 -0.316406 13.507812 0 11.6875 0 C 7.757812 0 4.828125 -0.847656 2.890625 -2.546875 C 0.960938 -4.242188 0 -7.082031 0 -11.0625 L 0 -43.421875 L 4.8125 -43.421875 L 4.8125 -11.0625 C 4.8125 -8.59375 5.242188 -6.640625 6.109375 -5.203125 C 6.972656 -3.773438 8.148438 -2.789062 9.640625 -2.25 C 11.128906 -1.71875 12.757812 -1.546875 14.53125 -1.734375 C 16.726562 -2.003906 19.003906 -2.6875 21.359375 -3.78125 C 23.710938 -4.882812 25.78125 -6.25 27.5625 -7.875 C 28.488281 -8.757812 28.953125 -9.800781 28.953125 -11 Z M 28.953125 -43.421875 "/></g></g></g><g fill="#000000" fill-opacity="1"><g transform="translate(144.561216, 194.554646)"><g><path d="M 15.171875 0 C 13.585938 0 12.003906 -0.144531 10.421875 -0.4375 C 8.835938 -0.726562 7.332031 -1.203125 5.90625 -1.859375 C 4.976562 -2.273438 4.019531 -2.835938 3.03125 -3.546875 C 2.050781 -4.265625 1.234375 -5.109375 0.578125 -6.078125 C -0.078125 -7.046875 -0.40625 -8.085938 -0.40625 -9.203125 C -0.40625 -10.472656 0.015625 -11.539062 0.859375 -12.40625 C 1.710938 -13.28125 2.953125 -13.71875 4.578125 -13.71875 C 3.953125 -11.90625 3.820312 -10.195312 4.1875 -8.59375 C 4.5625 -6.988281 5.289062 -5.609375 6.375 -4.453125 C 7.601562 -3.140625 9.160156 -2.191406 11.046875 -1.609375 C 12.941406 -1.035156 14.929688 -0.796875 17.015625 -0.890625 C 19.097656 -0.992188 21.078125 -1.390625 22.953125 -2.078125 C 24.828125 -2.773438 26.363281 -3.703125 27.5625 -4.859375 C 28.832031 -6.128906 29.609375 -7.457031 29.890625 -8.84375 C 30.179688 -10.238281 30.066406 -11.59375 29.546875 -12.90625 C 29.023438 -14.21875 28.175781 -15.394531 27 -16.4375 C 25.820312 -17.476562 24.425781 -18.289062 22.8125 -18.875 C 21.226562 -19.445312 19.476562 -19.894531 17.5625 -20.21875 C 15.65625 -20.550781 13.738281 -20.921875 11.8125 -21.328125 C 9.882812 -21.734375 8.078125 -22.3125 6.390625 -23.0625 C 4.710938 -23.820312 3.296875 -24.894531 2.140625 -26.28125 C 0.941406 -27.75 0.242188 -29.425781 0.046875 -31.3125 C -0.140625 -33.207031 0.191406 -34.96875 1.046875 -36.59375 C 1.734375 -37.976562 2.703125 -39.113281 3.953125 -40 C 5.210938 -40.882812 6.601562 -41.578125 8.125 -42.078125 C 9.65625 -42.585938 11.21875 -42.9375 12.8125 -43.125 C 14.414062 -43.320312 15.914062 -43.421875 17.3125 -43.421875 C 18.894531 -43.421875 20.476562 -43.273438 22.0625 -42.984375 C 23.644531 -42.691406 25.148438 -42.21875 26.578125 -41.5625 C 27.503906 -41.132812 28.457031 -40.554688 29.4375 -39.828125 C 30.414062 -39.097656 31.234375 -38.257812 31.890625 -37.3125 C 32.546875 -36.363281 32.875 -35.332031 32.875 -34.21875 C 32.875 -32.90625 32.445312 -31.8125 31.59375 -30.9375 C 30.75 -30.070312 29.519531 -29.660156 27.90625 -29.703125 C 28.476562 -31.316406 28.640625 -32.859375 28.390625 -34.328125 C 28.140625 -35.796875 27.570312 -37.085938 26.6875 -38.203125 C 25.71875 -39.515625 24.40625 -40.519531 22.75 -41.21875 C 21.09375 -41.914062 19.304688 -42.332031 17.390625 -42.46875 C 15.484375 -42.601562 13.644531 -42.457031 11.875 -42.03125 C 10.5625 -41.757812 9.273438 -41.285156 8.015625 -40.609375 C 6.765625 -39.929688 5.703125 -39.070312 4.828125 -38.03125 C 3.960938 -36.988281 3.453125 -35.734375 3.296875 -34.265625 C 3.140625 -32.648438 3.484375 -31.3125 4.328125 -30.25 C 5.179688 -29.1875 6.3125 -28.335938 7.71875 -27.703125 C 9.132812 -27.066406 10.578125 -26.554688 12.046875 -26.171875 C 13.859375 -25.742188 15.804688 -25.363281 17.890625 -25.03125 C 19.972656 -24.707031 22.007812 -24.253906 24 -23.671875 C 25.988281 -23.097656 27.710938 -22.210938 29.171875 -21.015625 C 30.597656 -19.859375 31.675781 -18.5 32.40625 -16.9375 C 33.144531 -15.375 33.492188 -13.75 33.453125 -12.0625 C 33.421875 -10.382812 33 -8.773438 32.1875 -7.234375 C 31.375 -5.691406 30.160156 -4.378906 28.546875 -3.296875 C 26.648438 -2.023438 24.472656 -1.15625 22.015625 -0.6875 C 19.566406 -0.226562 17.285156 0 15.171875 0 Z M 15.171875 0 "/></g></g></g><g fill="#000000" fill-opacity="1"><g transform="translate(180.395136, 194.554646)"><g/></g></g><g fill="#000000" fill-opacity="1"><g transform="translate(190.46771, 194.554646)"><g><path d="M 21.015625 -43.421875 C 23.910156 -43.421875 26.628906 -42.859375 29.171875 -41.734375 C 31.722656 -40.617188 33.960938 -39.066406 35.890625 -37.078125 C 37.816406 -35.085938 39.320312 -32.78125 40.40625 -30.15625 C 41.488281 -27.53125 42.03125 -24.710938 42.03125 -21.703125 C 42.03125 -18.691406 41.488281 -15.875 40.40625 -13.25 C 39.320312 -10.632812 37.816406 -8.332031 35.890625 -6.34375 C 33.960938 -4.351562 31.722656 -2.796875 29.171875 -1.671875 C 26.628906 -0.554688 23.910156 0 21.015625 0 C 18.117188 0 15.394531 -0.554688 12.84375 -1.671875 C 10.300781 -2.796875 8.070312 -4.351562 6.15625 -6.34375 C 4.25 -8.332031 2.742188 -10.632812 1.640625 -13.25 C 0.546875 -15.875 0 -18.691406 0 -21.703125 C 0 -24.710938 0.546875 -27.53125 1.640625 -30.15625 C 2.742188 -32.78125 4.25 -35.085938 6.15625 -37.078125 C 8.070312 -39.066406 10.300781 -40.617188 12.84375 -41.734375 C 15.394531 -42.859375 18.117188 -43.421875 21.015625 -43.421875 Z M 21.015625 -42.484375 C 18.773438 -42.484375 16.679688 -41.941406 14.734375 -40.859375 C 12.785156 -39.785156 11.066406 -38.289062 9.578125 -36.375 C 8.097656 -34.46875 6.929688 -32.257812 6.078125 -29.75 C 5.234375 -27.25 4.8125 -24.566406 4.8125 -21.703125 C 4.8125 -18.816406 5.234375 -16.117188 6.078125 -13.609375 C 6.929688 -11.097656 8.097656 -8.882812 9.578125 -6.96875 C 11.066406 -5.0625 12.785156 -3.566406 14.734375 -2.484375 C 16.679688 -1.410156 18.773438 -0.875 21.015625 -0.875 C 23.253906 -0.875 25.359375 -1.410156 27.328125 -2.484375 C 29.296875 -3.566406 31.019531 -5.0625 32.5 -6.96875 C 33.988281 -8.882812 35.144531 -11.097656 35.96875 -13.609375 C 36.800781 -16.117188 37.21875 -18.816406 37.21875 -21.703125 C 37.21875 -24.566406 36.800781 -27.25 35.96875 -29.75 C 35.144531 -32.257812 33.988281 -34.46875 32.5 -36.375 C 31.019531 -38.289062 29.296875 -39.785156 27.328125 -40.859375 C 25.359375 -41.941406 23.253906 -42.484375 21.015625 -42.484375 Z M 21.015625 -42.484375 "/></g></g></g><g fill="#000000" fill-opacity="1"><g transform="translate(235.100993, 194.554646)"><g><path d="M 0 -43.421875 L 30.96875 -43.421875 L 30.96875 -38.5625 C 29.039062 -38.976562 27.171875 -39.414062 25.359375 -39.875 C 23.546875 -40.34375 21.65625 -40.769531 19.6875 -41.15625 C 17.71875 -41.539062 15.523438 -41.859375 13.109375 -42.109375 C 10.703125 -42.359375 7.9375 -42.484375 4.8125 -42.484375 L 4.8125 -24.71875 C 5.8125 -25.957031 7.023438 -26.804688 8.453125 -27.265625 C 9.878906 -27.734375 11.304688 -27.8125 12.734375 -27.5 C 13.703125 -27.300781 14.648438 -26.988281 15.578125 -26.5625 C 16.503906 -26.144531 17.425781 -25.734375 18.34375 -25.328125 C 19.269531 -24.921875 20.238281 -24.640625 21.25 -24.484375 C 22.132812 -24.328125 23.03125 -24.34375 23.9375 -24.53125 C 24.84375 -24.726562 25.410156 -25.425781 25.640625 -26.625 C 26.109375 -24.539062 25.960938 -22.929688 25.203125 -21.796875 C 24.453125 -20.660156 23.363281 -19.992188 21.9375 -19.796875 C 20.550781 -19.640625 19.226562 -19.832031 17.96875 -20.375 C 16.71875 -20.914062 15.515625 -21.582031 14.359375 -22.375 C 13.203125 -23.164062 12.0625 -23.835938 10.9375 -24.390625 C 9.820312 -24.953125 8.703125 -25.175781 7.578125 -25.0625 C 6.890625 -24.988281 6.253906 -24.738281 5.671875 -24.3125 C 5.097656 -23.882812 4.8125 -23.25 4.8125 -22.40625 L 4.8125 0 L 0 0 Z M 0 -43.421875 "/></g></g></g><g fill="#000000" fill-opacity="1"><g transform="translate(268.503502, 194.554646)"><g/></g></g><g fill="#000000" fill-opacity="1"><g transform="translate(278.576087, 194.554646)"><g><path d="M 0 -43.421875 L 20.953125 -43.421875 C 23.035156 -43.421875 24.972656 -42.96875 26.765625 -42.0625 C 28.566406 -41.15625 30.023438 -39.867188 31.140625 -38.203125 C 32.265625 -36.546875 32.828125 -34.539062 32.828125 -32.1875 C 32.828125 -29.832031 32.242188 -27.820312 31.078125 -26.15625 C 29.921875 -24.5 28.414062 -23.226562 26.5625 -22.34375 C 24.71875 -21.457031 22.753906 -21.015625 20.671875 -21.015625 L 4.8125 -21.015625 L 4.8125 0 L 0 0 Z M 4.8125 -42.484375 L 4.8125 -21.875 L 17.71875 -21.875 C 21.1875 -21.875 23.757812 -22.828125 25.4375 -24.734375 C 27.125 -26.648438 27.96875 -29.132812 27.96875 -32.1875 C 27.96875 -34.226562 27.472656 -36.019531 26.484375 -37.5625 C 25.503906 -39.113281 24.226562 -40.320312 22.65625 -41.1875 C 21.09375 -42.050781 19.425781 -42.484375 17.65625 -42.484375 Z M 4.8125 -42.484375 "/></g></g></g><g fill="#000000" fill-opacity="1"><g transform="translate(313.715306, 194.554646)"><g><path d="M 0 -43.421875 L 20.953125 -43.421875 C 23.035156 -43.421875 24.972656 -42.96875 26.765625 -42.0625 C 28.566406 -41.15625 30.023438 -39.867188 31.140625 -38.203125 C 32.265625 -36.546875 32.828125 -34.539062 32.828125 -32.1875 C 32.828125 -29.675781 32.207031 -27.59375 30.96875 -25.9375 C 29.738281 -24.28125 28.128906 -23.046875 26.140625 -22.234375 C 24.148438 -21.421875 22 -21.015625 19.6875 -21.015625 C 20.613281 -20.585938 21.382812 -19.910156 22 -18.984375 C 23.195312 -17.398438 24.265625 -15.679688 25.203125 -13.828125 C 26.148438 -11.984375 27.054688 -10.148438 27.921875 -8.328125 C 28.796875 -6.515625 29.675781 -4.878906 30.5625 -3.421875 C 30.832031 -2.992188 31.25 -2.394531 31.8125 -1.625 C 32.375 -0.851562 32.882812 -0.3125 33.34375 0 L 28.890625 0 C 28.078125 0 27.476562 -0.125 27.09375 -0.375 C 26.707031 -0.625 26.378906 -0.984375 26.109375 -1.453125 C 24.640625 -4.148438 23.296875 -6.769531 22.078125 -9.3125 C 20.867188 -11.863281 19.394531 -14.488281 17.65625 -17.1875 C 15.226562 -20.894531 12.375 -21.398438 9.09375 -18.703125 L 8.625 -19.21875 C 9.707031 -20.144531 10.757812 -20.78125 11.78125 -21.125 C 12.800781 -21.476562 13.867188 -21.679688 14.984375 -21.734375 C 16.109375 -21.796875 17.304688 -21.863281 18.578125 -21.9375 C 21.785156 -22.132812 24.148438 -23.15625 25.671875 -25 C 27.203125 -26.851562 27.96875 -29.25 27.96875 -32.1875 C 27.96875 -34.226562 27.472656 -36.019531 26.484375 -37.5625 C 25.503906 -39.113281 24.226562 -40.320312 22.65625 -41.1875 C 21.09375 -42.050781 19.425781 -42.484375 17.65625 -42.484375 L 4.8125 -42.484375 L 4.8125 0 L 0 0 Z M 0 -43.421875 "/></g></g></g></svg>